PathFileType	4	(X/Y/Z)	C:/Users/opensim2020/Desktop/walking_exp_matlab/subject03_walking14_straight_03.trc	
DataRate	CameraRate	NumFrames	NumMarkers	Units	OrigDataRate	OrigDataStartFrame	OrigNumFrames	
100.00	100.00	9	47	mm	100.00	1743	215	
Frame#	Time	LFHD			RFHD			LBHD			RBHD			C7			T10			CLAV			STRN			RBAK			LSHO			LUPA			LELB			LFRM			LWRA			LWRB			LFIN			RSHO			RUPA			RELB			RFRM			RWRA			RWRB			RFIN			LASI			RASI			LPSI			RPSI			LTHI			LKNE			LTIB			LANK			LHEE			LTOE			RTHI			RKNE			RTIB			RANK			RHEE			RTOE			*39			*40			*41			*42			*43			*44			*45			*46			
		X1	Y1	Z1	X2	Y2	Z2	X3	Y3	Z3	X4	Y4	Z4	X5	Y5	Z5	X6	Y6	Z6	X7	Y7	Z7	X8	Y8	Z8	X9	Y9	Z9	X10	Y10	Z10	X11	Y11	Z11	X12	Y12	Z12	X13	Y13	Z13	X14	Y14	Z14	X15	Y15	Z15	X16	Y16	Z16	X17	Y17	Z17	X18	Y18	Z18	X19	Y19	Z19	X20	Y20	Z20	X21	Y21	Z21	X22	Y22	Z22	X23	Y23	Z23	X24	Y24	Z24	X25	Y25	Z25	X26	Y26	Z26	X27	Y27	Z27	X28	Y28	Z28	X29	Y29	Z29	X30	Y30	Z30	X31	Y31	Z31	X32	Y32	Z32	X33	Y33	Z33	X34	Y34	Z34	X35	Y35	Z35	X36	Y36	Z36	X37	Y37	Z37	X38	Y38	Z38	X39	Y39	Z39	X40	Y40	Z40	X41	Y41	Z41	X42	Y42	Z42	X43	Y43	Z43	X44	Y44	Z44	X45	Y45	Z45	X46	Y46	Z46	X47	Y47	Z47	

162	1.610	1382.97498	531.12958	1608.12537	1514.68835	542.59619	1615.67969	1401.54895	412.98151	1546.11975	1530.79749	429.20093	1553.91882	1447.33850	399.70078	1398.67212	1434.00476	377.25058	1083.95740	1449.74927	522.26099	1324.25781	1447.53064	571.27002	1161.29163	1537.91370	345.96216	1221.19080	1291.77234	481.85861	1362.25342	1218.93079	448.27509	1166.02173	1204.44434	435.84326	1043.44714	1197.90881	429.11121	912.61249	1222.03223	407.23441	791.38373	1166.40576	395.45074	806.97565	1176.98853	353.51361	727.08807	1607.43530	467.70682	1348.09399	1694.99719	509.20471	1140.15906	1715.16321	561.10016	1043.09180	1713.96191	648.57867	939.23352	1674.58533	727.21155	882.26917	1715.51465	704.06934	855.84937	1705.49561	765.55579	816.06396	1339.26086	562.42682	924.81775	1574.72009	524.01672	924.17841	1358.35498	395.85135	941.39648	1506.15955	371.40573	955.01563	1287.03381	583.77417	627.17767	1339.61755	655.16913	471.63776	1329.76038	681.80542	282.04626	1364.92749	742.32111	79.01006	1398.97815	712.60608	30.06072	1402.88257	889.76538	93.44150	1602.13086	413.41467	640.55194	1564.92932	383.12357	463.64465	1561.74768	277.35312	299.48645	1507.12659	183.06049	103.77927	1454.54102	133.75711	86.66884	1491.77087	312.05420	34.70716				1439.19995	444.13104	1654.21704																		 
163	1.620	1381.91931	543.90167	1606.95435	1513.66150	555.34521	1614.76331	1400.65613	425.90634	1544.59790	1529.85803	442.11234	1552.65613	1446.15247	413.27347	1397.22473	1433.94641	391.67166	1082.47107	1449.27722	535.96271	1323.13513	1447.70068	585.53149	1160.34143	1536.57861	359.49664	1219.49048	1291.02185	496.16580	1360.77795	1217.75391	461.13837	1164.91211	1203.14722	447.16013	1042.40369	1196.21289	438.61060	911.83490	1219.97021	415.04965	790.84027	1164.25830	403.61261	806.64124	1175.49963	358.78302	727.86121	1606.76086	480.31552	1347.04053	1694.66284	521.75653	1139.24048	1715.20483	574.16638	1042.69348	1713.89148	663.26099	940.49414	1674.59619	743.20636	885.41815	1715.14038	720.38135	858.19446	1705.22083	782.66315	819.74677	1339.76147	577.62976	924.39032	1574.97949	537.99219	922.14490	1358.22681	409.92062	941.15607	1506.00769	386.02136	953.61810	1288.46094	601.25165	627.61481	1340.64209	671.40509	471.97769	1331.05444	696.14386	281.06696	1367.30676	753.85059	77.29130	1400.66162	723.21106	28.75140	1407.81299	900.76416	90.43835	1602.41345	424.77722	639.46643	1565.73425	393.17902	462.68497	1562.44360	284.07977	300.52817	1508.09192	185.20134	107.07317	1455.63770	135.56194	91.24912	1491.96069	312.23010	34.52227				1437.71912	456.69556	1652.75952																		 
164	1.630	1380.79272	556.73138	1605.89490	1512.48206	568.10736	1613.86121	1399.65027	438.80923	1543.26111	1528.75977	455.04340	1551.52625	1444.97925	426.72931	1395.60498	1434.09290	406.48254	1081.26819	1448.77808	549.77399	1322.17090	1447.72656	599.98688	1159.59888	1535.26904	373.33237	1217.76636	1290.21130	510.46466	1359.50317	1216.66516	474.38354	1163.94922	1201.98730	458.89090	1041.86816	1194.44470	448.69778	911.20813	1217.85791	423.80539	790.42462	1162.00818	412.50699	806.52716	1173.75269	365.70825	728.63129	1606.03455	493.05029	1346.25317	1694.19824	534.19012	1138.41833	1714.67896	586.57739	1042.09131	1713.68274	677.38702	941.63324	1674.68250	758.56140	888.42358	1714.66089	735.88300	860.26752	1705.11206	799.21161	823.40692	1340.09692	593.10590	924.17725	1575.13403	552.47375	920.19543	1358.40649	425.00574	940.74750	1506.03979	400.91281	952.33539	1289.39282	619.50092	628.43451	1342.49939	687.83679	472.43320	1332.86182	709.05536	279.59308	1369.88220	762.86841	75.11227	1402.24585	730.43610	28.35528	1412.20435	908.90155	85.64979	1602.74805	436.68115	638.49268	1566.74451	403.97092	461.74606	1563.36890	291.35730	301.78958	1509.52380	187.73915	110.71994	1456.94421	137.76836	96.44508	1492.19946	312.78455	34.53215				1437.13818	469.54584	1651.77905																		 
165	1.640	1379.58179	569.50067	1604.94226	1512.25793	581.77289	1613.59680	1398.58386	451.78635	1542.04858	1527.63293	467.97903	1550.47949	1443.73584	440.30145	1394.12341	1434.16016	421.24591	1079.70679	1448.06982	563.62396	1321.29126	1447.63879	614.66302	1158.98853	1534.08337	387.36206	1216.27197	1289.33008	524.69727	1358.32080	1215.53992	487.83313	1163.03223	1200.63342	471.19946	1041.11719	1192.58972	459.40552	910.68701	1215.66260	433.55240	790.08563	1160.18005	422.20871	806.43127	1171.77441	374.16086	729.15546	1605.13037	505.88434	1345.62256	1693.51355	546.47217	1137.62964	1714.25891	598.76788	1041.63062	1713.35461	690.75214	942.46381	1674.72229	773.24438	891.01605	1714.15649	750.64545	862.05756	1704.90198	814.67700	826.43311	1340.23706	608.81586	923.96985	1575.14709	567.58728	918.38696	1358.56677	440.35495	940.37048	1506.06885	416.06827	951.14899	1290.19385	637.86005	629.15295	1344.00513	704.14508	472.24402	1335.46545	720.58002	277.69690	1372.61438	769.50531	72.74694	1403.11816	734.41937	29.06101	1415.74646	915.29462	77.79418	1602.93311	449.20502	637.53351	1567.97510	415.51306	460.86810	1564.48511	299.18588	303.22321	1510.91003	190.74838	114.75518	1458.38684	140.56688	102.21403	1492.42383	313.09473	34.28458				1435.54395	482.25406	1650.56262																		 
166	1.650	1378.27539	582.37012	1604.17017	1510.63086	594.35278	1612.93298	1397.39758	464.84479	1540.91553	1526.44360	480.90347	1549.56299	1442.34863	453.67258	1392.87866	1434.27039	436.74451	1078.32202	1447.31128	577.61023	1320.64832	1447.51099	629.46893	1158.65747	1532.84351	401.54651	1214.76392	1288.42310	539.07990	1357.34753	1214.28870	501.72928	1162.22876	1199.30603	483.79050	1040.58801	1190.95605	470.89120	910.39563	1213.64294	444.31772	789.82495	1157.87280	432.81494	806.43445	1169.11707	384.43686	729.47156	1604.09387	518.79456	1345.14612	1692.72815	558.58319	1136.90503	1713.67017	610.75940	1041.19092	1712.99573	703.80286	943.15088	1674.83398	787.30841	893.25140	1713.64307	764.73035	863.45673	1704.69800	829.39050	828.92889	1340.29761	624.42987	923.93457	1575.15967	583.05707	916.67279	1358.38831	455.78525	940.31665	1506.08594	431.32562	950.18787	1290.96033	656.28864	629.75250	1345.13440	720.23846	472.27295	1337.99976	732.30579	276.68271	1374.40283	774.26215	71.85770	1404.37402	735.53943	30.94330	1417.89563	919.75055	64.32947	1602.98486	462.46204	636.56476	1569.19873	427.78040	459.96463	1565.77112	307.63525	304.95264	1512.59668	194.51837	119.30112	1460.03394	144.02567	108.65240	1492.77441	313.65973	34.19617				1434.18970	494.97467	1649.54993																		 
167	1.660	1376.92395	595.21210	1603.89771	1509.71167	607.45123	1613.10193	1396.20215	477.89874	1540.09839	1525.21863	493.92429	1549.05713	1440.85413	467.00873	1391.93079	1434.30334	452.32666	1077.11609	1446.49670	591.53119	1320.45203	1447.32056	644.26349	1158.88708	1531.46326	415.64020	1213.80774	1287.41113	553.42133	1356.56860	1213.01807	515.85931	1161.58252	1197.93579	496.79868	1040.09363	1189.28284	483.09656	910.12579	1210.80811	456.48370	789.66223	1156.42517	444.21487	806.19855	1167.75586	395.68622	729.22180	1603.10693	531.79089	1344.82361	1691.83459	570.61548	1136.31982	1713.21533	622.81982	1040.80286	1712.60559	716.44995	943.61023	1674.79504	800.73340	894.85059	1713.10754	778.17340	864.46869	1704.37512	843.32629	830.75916	1340.30249	639.80280	924.09998	1575.12708	598.92505	915.24084	1357.85388	471.32291	940.63867	1506.15125	447.14465	949.56799	1291.45349	673.98090	630.83081	1346.05347	736.41766	473.21921	1339.85706	743.68530	277.17361	1374.92664	777.91473	71.30816	1404.82410	736.69708	32.26626	1420.50098	921.65961	53.97768	1603.14160	476.48923	635.59412	1570.38281	441.09445	459.00049	1566.96997	317.05127	306.88403	1514.48596	198.93338	124.41879	1462.07703	148.34099	115.92520	1493.20081	314.36191	34.10156				1430.71826	507.15564	1648.12329																		 
168	1.670	1375.59912	608.11029	1604.02625	1508.27527	620.24023	1613.58350	1394.92871	490.99680	1539.91479	1523.86621	506.87540	1549.20825	1439.33362	480.50513	1391.43677	1434.69861	467.82297	1076.39197	1445.76514	605.38257	1320.77368	1447.04846	658.92950	1159.43896	1530.11633	429.74597	1213.06543	1286.37793	567.82953	1356.04541	1211.87292	530.12006	1161.00696	1196.70178	510.30569	1039.84692	1187.88391	495.87433	909.76910	1209.99243	468.68427	789.35419	1154.88525	456.30994	806.21631	1165.23401	409.06140	729.09222	1602.16406	544.77179	1344.89600	1691.06592	582.89380	1135.91638	1712.37634	634.29840	1040.29956	1712.12109	728.68109	943.87207	1674.89282	813.67883	896.15710	1712.55835	790.96436	865.12708	1704.06543	856.46326	831.93860	1340.14282	655.29041	924.53290	1574.82971	614.91357	914.16864	1357.83533	487.88010	941.48810	1506.44055	463.08966	949.29163	1291.35742	690.64783	632.84283	1346.90698	752.85913	476.14734	1339.51208	755.61371	278.62592	1375.05334	781.29395	71.12122	1404.51770	738.43713	33.60536	1422.13367	924.09625	47.34248	1603.41846	491.43744	634.71082	1571.70752	455.76566	458.07626	1568.37061	327.48410	309.12936	1516.29150	204.20619	130.13896	1463.82190	153.81027	123.93756	1493.65784	315.15652	34.01367				1431.13098	520.22083	1648.83093																		 
169	1.680	1374.23108	621.06531	1604.39539	1506.84985	633.11670	1614.23157	1393.59460	504.01038	1540.14929	1522.47388	519.75409	1549.71619	1437.85132	494.33728	1391.36292	1435.34204	482.56525	1076.25464	1444.97632	619.22821	1321.30920	1446.73022	673.74335	1160.23877	1528.89380	443.98642	1212.54443	1285.37207	582.16705	1355.80811	1211.06165	544.70117	1160.61316	1195.54175	524.07306	1039.55481	1186.75061	509.55371	909.68451	1208.72559	481.39566	788.95129	1153.65076	469.80600	806.20892	1163.37268	423.84882	728.62250	1601.17004	557.82416	1345.33472	1689.99817	594.88989	1135.71191	1711.72461	646.12897	1040.19592	1711.59070	740.52399	943.97882	1674.87585	826.02496	896.95374	1712.01196	803.06537	865.40228	1703.66589	868.87805	832.51849	1340.02136	671.14478	925.65973	1574.29163	630.90570	913.55408	1357.51697	503.44992	942.76105	1506.81934	479.28842	949.29846	1291.32324	706.12207	634.80109	1347.62036	769.28131	478.83942	1338.98474	766.75592	279.71237	1375.41907	785.16382	70.79397	1404.01379	740.46198	35.19386	1422.20862	927.50635	42.78354	1603.71008	507.33905	633.68573	1573.27539	471.79480	456.97089	1569.71155	338.98972	311.68140	1518.12866	210.70619	136.35675	1465.25244	160.58144	132.83139	1493.90820	315.84302	33.76500				1429.39685	532.80072	1649.06226																		 
170	1.690	1372.81628	633.91602	1604.82471	1505.45142	645.94696	1614.81604	1392.20398	516.99078	1540.49182	1521.00647	532.59460	1550.26941	1436.65918	508.37082	1391.52100	1435.55542	497.64050	1076.21179	1444.21533	633.10455	1321.96606	1446.30737	688.65771	1161.18054	1527.93201	458.34445	1212.26868	1284.48853	596.36353	1355.79236	1209.97656	559.36127	1160.58838	1194.53064	538.56818	1039.58142	1185.66309	524.09265	909.79504	1207.55359	496.89133	789.38452	1152.56763	484.46988	806.24506	1161.86719	439.96475	727.78687	1600.21033	571.05920	1345.97205	1688.90759	606.93927	1135.75183	1710.54395	657.40918	1040.04871	1710.93994	751.98438	943.98389	1674.70581	837.70264	897.15729	1711.36316	814.50989	865.30853	1703.06433	880.33521	832.32025	1340.23718	686.77344	927.16351	1573.61841	646.91815	913.25238	1357.92188	519.32794	944.01086	1507.30310	495.39584	949.24762	1292.38660	721.36359	636.48389	1347.73071	784.98651	480.10406	1338.17151	777.15448	279.77771	1375.82336	787.66125	70.43160	1403.51965	742.34576	36.28325	1420.28528	931.66907	41.12562	1604.33667	524.06622	632.58740	1575.32349	489.23337	455.64420	1571.18420	351.83377	314.35736	1519.49316	218.28008	143.17552	1466.28809	169.16145	142.36725	1493.96509	316.77957	33.51262																								 
